<svg xmlns="http://www.w3.org/2000/svg" viewBox="0 0 24 24"><polygon points="6 22 18 22 17 19 7 19 6 22" fill="none" stroke="#000"/><line x1="11" y1="15" x2="10" y2="19" fill="none" stroke="#000"/><line x1="13" y1="15" x2="14" y2="19" fill="none" stroke="#000"/><path d="M6,2V9A6,6,0,0,0,18,9V2Z" fill="none" stroke="#000"/><path d="M17.93,9.93a2.12,2.12,0,0,0,.57.07,2.5,2.5,0,0,0,0-5,2.73,2.73,0,0,0-.5,0" fill="none" stroke="#000"/><path d="M6,5.05a2.73,2.73,0,0,0-.5,0,2.5,2.5,0,0,0,0,5,2.12,2.12,0,0,0,.57-.07" fill="none" stroke="#000"/></svg>